<?xml version="1.0" encoding="UTF-8"?>
<svg version="1.1" xmlns="http://www.w3.org/2000/svg" width="512" height="512">
<path d="M0 0 C1.01201477 0.00054382 2.02402954 0.00108765 3.06671143 0.00164795 C19.59887291 0.04238923 35.523992 0.95817716 51.75 4.375 C52.78125 4.58930664 53.8125 4.80361328 54.875 5.02441406 C101.10680927 14.94980561 143.72188765 37.60106665 177.75 70.375 C178.7390332 71.32318604 178.7390332 71.32318604 179.74804688 72.29052734 C189.23630305 81.43497479 197.9762044 90.73234009 205.75 101.375 C206.60806152 102.52605017 207.46613451 103.67709177 208.32421875 104.828125 C214.36236829 113.01930614 219.72095521 121.53304105 224.75 130.375 C225.11448242 131.00680176 225.47896484 131.63860352 225.85449219 132.28955078 C240.79844987 158.39861012 250.2069899 187.70057874 254.75 217.375 C254.91867081 218.44959473 255.08734161 219.52418945 255.26112366 220.63134766 C256.89444611 232.13552447 257.00866309 243.45843177 256.9453125 255.0625 C256.94157243 257.1022935 256.93873017 259.14208881 256.93673706 261.18188477 C256.92917876 266.49508818 256.90959935 271.8081785 256.8873291 277.12133789 C256.86670048 282.56525138 256.85769932 288.00918352 256.84765625 293.453125 C256.82634443 304.0937991 256.79230535 314.73439007 256.75 325.375 C253.78 325.375 250.81 325.375 247.75 325.375 C247.62625 325.99761719 247.5025 326.62023437 247.375 327.26171875 C239.59051528 362.14594091 219.91090832 395.52550257 196.75 422.375 C196.11578125 423.12007813 195.4815625 423.86515625 194.828125 424.6328125 C183.01698485 438.13779833 170.26639772 450.80918743 155.75 461.375 C154.60005169 462.23149066 153.45031411 463.08826433 152.30078125 463.9453125 C144.10910474 469.9859414 135.59354922 475.34505071 126.75 480.375 C126.11819824 480.73948242 125.48639648 481.10396484 124.83544922 481.47949219 C98.75035999 496.40973018 69.41414886 505.88885054 39.75 510.375 C38.62754883 510.55160156 37.50509766 510.72820312 36.34863281 510.91015625 C24.73552257 512.5670586 13.21820055 512.77373513 1.5 512.75 C-0.01802216 512.74918427 -0.01802216 512.74918427 -1.56671143 512.74835205 C-18.09887291 512.70761077 -34.023992 511.79182284 -50.25 508.375 C-51.796875 508.05354004 -51.796875 508.05354004 -53.375 507.72558594 C-99.60680927 497.80019439 -142.22188765 475.14893335 -176.25 442.375 C-176.90935547 441.74287598 -177.56871094 441.11075195 -178.24804688 440.45947266 C-187.73630305 431.31502521 -196.4762044 422.01765991 -204.25 411.375 C-205.10806152 410.22394983 -205.96613451 409.07290823 -206.82421875 407.921875 C-212.86236829 399.73069386 -218.22095521 391.21695895 -223.25 382.375 C-223.61448242 381.74319824 -223.97896484 381.11139648 -224.35449219 380.46044922 C-246.25 342.20611761 -246.25 342.20611761 -246.25 325.375 C-249.22 325.375 -252.19 325.375 -255.25 325.375 C-255.34377397 313.86334087 -255.41429835 302.35177647 -255.45724869 290.83980942 C-255.47789009 285.49104825 -255.50576343 280.14255331 -255.55175781 274.79394531 C-256.16762212 201.18929719 -237.37323909 133.49286912 -185.25 79.375 C-184.61787598 78.71564453 -183.98575195 78.05628906 -183.33447266 77.37695312 C-174.19002521 67.88869695 -164.89265991 59.1487956 -154.25 51.375 C-153.09894983 50.51693848 -151.94790823 49.65886549 -150.796875 48.80078125 C-142.60569386 42.76263171 -134.09195895 37.40404479 -125.25 32.375 C-124.61819824 32.01051758 -123.98639648 31.64603516 -123.33544922 31.27050781 C-97.25035999 16.34026982 -67.91414886 6.86114946 -38.25 2.375 C-37.12754883 2.19839844 -36.00509766 2.02179687 -34.84863281 1.83984375 C-23.23552257 0.1829414 -11.71820055 -0.02373513 0 0 Z " fill="#8B2020" transform="translate(255.25,-0.375)"/>
<path d="M0 0 C0.78469666 0.00054382 1.56939331 0.00108765 2.37786865 0.00164795 C42.24810977 0.12803397 77.63019467 13.19859911 106.5625 41 C110.95299875 45.54026442 114.45391098 49.23836803 114.8125 55.8125 C110.94578499 67.41264503 96.06206161 76.78766843 85.625 82.375 C81.85830278 83.09936485 79.6274153 82.9805199 76.31640625 80.98046875 C73.03192637 78.50497406 70.20407061 76.10167685 67.6328125 72.875 C55.19003212 57.38204388 34.79687456 49.50520828 15.625 47.375 C-7.07505139 45.98029998 -29.67792198 46.23278376 -47.8125 61.75 C-57.31714968 70.81221815 -60.27685174 80.20496135 -60.6875 93.0625 C-60.54461724 104.29070352 -57.6261945 112.16869101 -49.7109375 120.19921875 C-37.20014115 131.85225147 -20.97954368 136.80500549 -5.04150391 142.11196899 C-1.93223008 143.14757207 1.17285874 144.19500849 4.27734375 145.24487305 C13.5741538 148.38229719 22.88346212 151.47581513 32.2265625 154.47265625 C66.48302749 165.49024957 97.0253397 178.45492261 114.33984375 211.6640625 C124.64401367 232.77627374 125.88413787 259.54583179 118.69433594 281.9309082 C114.46523384 294.19121162 108.15212016 304.59792046 99.625 314.375 C99.10679687 314.97699219 98.58859375 315.57898438 98.0546875 316.19921875 C76.25303753 339.69898719 41.12770356 348.22227624 10.28149414 349.51513672 C-32.81281872 350.73161827 -75.38565875 341.87237849 -107.8984375 311.78515625 C-127.34245181 292.86251141 -127.34245181 292.86251141 -128.25 282.6875 C-127.67058929 277.04324048 -124.58779033 273.91627789 -120.375 270.375 C-100.90468238 255.59188354 -100.90468238 255.59188354 -92.30859375 256.046875 C-85.50701908 257.20108161 -82.13038176 263.06499614 -78.11328125 268.1015625 C-63.21622072 286.26488338 -45.05989325 299.32050006 -21.13378906 302.14794922 C-4.74281953 303.49694052 12.70039662 303.76799404 28.625 299.375 C30.29755859 298.95734375 30.29755859 298.95734375 32.00390625 298.53125 C44.6356381 295.07131873 55.84373819 289.76040287 62.859375 278.37109375 C68.34690951 268.21120196 69.4450867 256.23291762 66.5 245.0625 C62.19726096 232.85472877 53.1195644 225.14595689 41.875 219.375 C41.05789551 218.95057617 40.24079102 218.52615234 39.39892578 218.08886719 C31.18850999 213.95002928 22.68539149 210.97345366 13.95507812 208.14111328 C11.1856389 207.23054116 8.44379672 206.2543415 5.70141602 205.26586914 C-4.4231683 201.61656007 -14.64966427 198.26277607 -24.86865234 194.8894043 C-47.31167052 187.45939847 -69.54742559 179.40320743 -87.375 163.375 C-88.14328125 162.70082031 -88.9115625 162.02664062 -89.703125 161.33203125 C-105.30137565 146.79729769 -115.01405035 125.65431728 -115.80859375 104.359375 C-115.83230377 101.94803288 -115.83309488 99.53637074 -115.8125 97.125 C-115.80347656 95.85374268 -115.79445312 94.58248535 -115.78515625 93.27270508 C-115.32427525 68.15949127 -105.48430486 47.82898776 -87.63476562 30.15087891 C-74.28399688 17.46310237 -57.72724219 9.50777998 -40.125 4.5 C-39.11796021 4.21322388 -39.11796021 4.21322388 -38.09057617 3.9206543 C-25.54299007 0.61850017 -12.89615307 -0.03381948 0 0 Z " fill="#FEFDFD" transform="translate(257.375,81.625)"/>
<path d="M0 0 C21.4715826 -0.12032643 21.4715826 -0.12032643 30.6328125 -0.14648438 C36.88093724 -0.16440917 43.12892993 -0.18560148 49.37695312 -0.22631836 C54.41495078 -0.25894387 59.45280679 -0.27685983 64.49090195 -0.28463173 C66.41181543 -0.29016949 68.33272127 -0.3009834 70.25357437 -0.31719017 C72.94672574 -0.33900679 75.63929383 -0.34196515 78.33251953 -0.34057617 C79.12446213 -0.351362 79.91640472 -0.36214783 80.73234558 -0.3732605 C85.55187115 -0.3464116 88.8043901 0.37402113 93 3 C96.56738381 7.75351485 95.32731863 14.73206751 95.3125 20.375 C95.32861328 21.59445312 95.34472656 22.81390625 95.36132812 24.0703125 C95.36197266 25.25109375 95.36261719 26.431875 95.36328125 27.6484375 C95.36626221 28.72270996 95.36924316 29.79698242 95.37231445 30.90380859 C94.93883113 34.50868433 93.86453207 36.8995989 92 40 C86.77670126 43.78689159 82.21692569 44.14261725 75.94848633 44.11352539 C75.12874832 44.11367142 74.30901031 44.11381744 73.46443176 44.1139679 C70.75360472 44.11327096 68.0428463 44.10548878 65.33203125 44.09765625 C63.45301857 44.09579129 61.5740054 44.09436776 59.69499207 44.09336853 C54.74824685 44.08954948 49.80153098 44.07972438 44.85479736 44.06866455 C38.92016455 44.05663931 32.98552194 44.05204528 27.05088043 44.04621124 C18.03389988 44.03651233 9.01698371 44.01735148 0 44 C0 29.48 0 14.96 0 0 Z " fill="#FEFCFC" transform="translate(0,281)"/>
<path d="M0 0 C1.25886772 -0.00021904 1.25886772 -0.00021904 2.54316711 -0.0004425 C5.31892475 0.00025452 8.0946154 0.0080371 10.87036133 0.01586914 C12.79421451 0.01773407 14.71806817 0.01915762 16.641922 0.02015686 C21.7070344 0.02397615 26.77211816 0.03380145 31.83721924 0.04486084 C37.91368772 0.05688544 43.99016578 0.06148 50.06664276 0.06731415 C59.29941263 0.07701349 68.53211963 0.09617418 77.76489258 0.11352539 C77.76489258 14.63352539 77.76489258 29.15352539 77.76489258 44.11352539 C56.5027671 44.23385182 56.5027671 44.23385182 47.4387207 44.26000977 C41.25415322 44.27794238 35.069719 44.29915568 28.88525391 44.33984375 C23.89913154 44.3724425 18.91315209 44.39037957 13.92693138 44.39815712 C12.02472878 44.40369968 10.12253398 44.41452294 8.22039223 44.43071556 C5.5557732 44.45249665 2.89174453 44.45549203 0.22705078 44.45410156 C-0.55913635 44.46488739 -1.34532349 44.47567322 -2.15533447 44.48678589 C-6.70548244 44.46109798 -9.61687818 43.92779795 -13.23510742 41.11352539 C-17.49080442 35.7251511 -16.75790832 29.77208232 -16.73608398 23.19360352 C-16.73510982 21.11863128 -16.7768033 19.04734102 -16.82104492 16.97290039 C-16.82362305 15.65805664 -16.82620117 14.34321289 -16.82885742 12.98852539 C-16.83949219 11.1902832 -16.83949219 11.1902832 -16.8503418 9.35571289 C-16.06064672 5.19414521 -14.49191462 3.73433118 -11.23510742 1.11352539 C-7.45718623 -0.14578167 -3.93460295 -0.01783007 0 0 Z " fill="#FDFBFB" transform="translate(434.235107421875,280.886474609375)"/>
</svg>
